<?xml version="1.0" standalone="no"?>
<!DOCTYPE svg PUBLIC "-//W3C//DTD SVG 20010904//EN"
 "http://www.w3.org/TR/2001/REC-SVG-20010904/DTD/svg10.dtd">
<svg version="1.0" xmlns="http://www.w3.org/2000/svg"
 width="300.000000pt" height="150.000000pt" viewBox="0 0 300.000000 150.000000"
 preserveAspectRatio="xMidYMid meet">
<metadata>
Created by potrace 1.10, written by Peter Selinger 2001-2011
</metadata>
<g transform="translate(0.000000,150.000000) scale(0.100000,-0.100000)"
fill="#000000" stroke="none">
<path d="M485 1439 c-22 -18 -26 -27 -20 -53 3 -17 9 -47 12 -66 l5 -35 -22
28 c-12 16 -31 27 -45 27 -24 0 -65 -42 -65 -67 0 -9 -7 -12 -25 -7 -18 5 -30
-1 -50 -22 l-26 -28 7 52 c5 43 3 56 -11 72 -25 27 -57 25 -85 -5 -22 -23 -23
-29 -12 -58 7 -19 12 -65 12 -104 0 -80 14 -106 74 -138 20 -11 36 -25 36 -32
0 -7 -17 -29 -38 -47 -45 -41 -86 -112 -102 -178 -7 -27 -18 -48 -25 -48 -8 0
-23 -12 -34 -26 -40 -51 -19 -178 39 -229 12 -11 24 -19 27 -17 2 1 21 -33 43
-75 47 -94 93 -140 185 -187 82 -43 112 -44 184 -11 100 47 173 125 215 230 9
23 28 47 44 56 58 33 92 169 56 224 -10 15 -26 30 -37 34 -14 5 -25 25 -34 61
-15 60 -62 140 -99 169 -30 24 -30 26 5 41 55 22 65 44 73 149 3 53 9 110 13
126 5 24 2 35 -19 54 -35 33 -76 21 -92 -27 -9 -29 -12 -31 -23 -18 -16 19
-44 20 -73 5 -19 -10 -20 -9 -15 28 3 21 9 51 12 66 6 22 2 34 -15 53 -29 30
-40 30 -75 3z m65 -30 c9 -16 8 -24 -4 -38 -13 -14 -16 -42 -16 -133 l0 -116
33 -21 32 -20 3 56 c2 32 -2 67 -9 79 -16 30 -5 54 25 54 31 0 46 -38 22 -55
-13 -10 -16 -31 -16 -104 0 -50 2 -91 4 -91 2 0 24 12 50 26 l46 26 0 86 c0
66 -4 90 -17 104 -21 23 -8 51 25 56 29 4 48 -31 27 -51 -10 -11 -15 -43 -17
-113 l-3 -98 -57 -33 c-55 -32 -58 -36 -58 -73 0 -34 5 -42 43 -67 38 -26 42
-33 45 -73 1 -25 7 -55 14 -67 15 -30 3 -53 -27 -53 -30 0 -43 25 -27 51 7 10
12 39 12 63 0 35 -5 47 -25 60 -33 22 -35 21 -35 -18 0 -30 -5 -38 -40 -57
-42 -24 -49 -45 -28 -78 16 -26 3 -53 -23 -49 -34 5 -47 33 -25 57 10 11 15
27 12 38 -5 14 4 24 39 43 l45 25 0 68 c0 64 -1 68 -27 79 -32 14 -164 17
-206 5 -21 -6 -28 -5 -25 5 2 6 20 16 39 21 36 10 172 4 202 -8 14 -6 17 -2
17 27 0 29 -5 36 -45 58 l-45 25 0 125 c-1 92 -4 130 -15 144 -10 13 -11 24
-4 37 13 25 46 24 59 -2z m-317 -101 c8 -12 7 -21 -3 -32 -8 -11 -13 -44 -13
-92 l0 -75 39 -24 c21 -14 41 -25 44 -25 9 0 -1 95 -13 118 -21 43 31 81 56
41 8 -12 6 -26 -6 -50 -9 -19 -14 -35 -12 -37 2 -3 19 4 37 15 28 16 33 26 36
61 2 25 -1 42 -7 42 -21 0 -12 48 9 55 38 12 66 -30 36 -54 -10 -8 -12 -24 -9
-51 5 -38 4 -39 -46 -67 l-51 -28 0 -102 0 -101 45 -26 45 -27 0 -74 c0 -47 4
-75 11 -75 6 0 9 -12 7 -27 -2 -22 -8 -28 -27 -28 -34 0 -50 29 -28 53 12 13
17 36 17 79 0 59 -1 62 -36 82 -19 12 -36 21 -37 21 -7 0 6 -109 15 -127 8
-17 8 -26 -2 -38 -27 -33 -71 -2 -52 38 10 22 22 77 16 77 -1 0 -19 -9 -38
-21 -39 -23 -48 -58 -21 -85 19 -20 19 -29 -1 -49 -30 -29 -69 9 -46 45 6 11
12 34 12 52 0 29 6 36 44 56 41 22 44 27 48 70 3 26 3 48 2 50 -8 11 -78 -69
-100 -115 -53 -107 -43 -298 21 -430 40 -82 89 -127 177 -168 l56 -26 54 21
c164 61 242 199 243 430 0 106 -2 119 -28 172 -15 31 -42 69 -58 83 -17 14
-29 30 -27 37 7 19 75 -50 102 -104 14 -28 29 -73 32 -100 6 -41 10 -48 29
-48 37 0 48 -24 43 -90 -5 -66 -31 -113 -66 -118 -15 -2 -25 -17 -37 -52 -21
-63 -68 -132 -115 -170 -45 -36 -137 -80 -166 -80 -37 0 -161 69 -199 111 -35
39 -95 150 -95 176 0 6 -10 13 -22 15 -49 7 -92 122 -66 176 9 18 22 28 41 30
22 3 27 8 27 32 0 59 41 143 97 197 73 72 73 98 -2 138 l-55 30 0 83 c0 45 -5
91 -12 101 -6 10 -8 26 -5 35 8 21 46 18 60 -6z m291 -240 l42 -33 -103 0
-103 0 0 25 c0 19 10 31 40 48 30 17 42 31 49 60 25 100 26 100 29 15 l3 -83
43 -32z m158 89 c1 -65 -5 -87 -23 -87 -13 0 -11 104 3 135 16 35 19 27 20
-48z m-412 -20 c0 -16 -4 -26 -10 -22 -5 3 -10 23 -10 43 0 28 3 33 10 22 5
-8 10 -28 10 -43z m283 -193 c13 -4 17 -19 17 -53 0 -44 -3 -50 -37 -72 -22
-14 -40 -35 -43 -49 -6 -31 -27 -67 -34 -59 -3 3 -6 32 -7 65 -1 82 -5 91 -50
120 -21 13 -39 29 -39 34 0 25 139 35 193 14z m87 -194 c-8 -20 -9 -34 -1 -48
9 -17 7 -21 -12 -26 -12 -3 -25 -6 -28 -6 -5 0 -20 45 -23 72 -2 11 69 55 73
46 1 -5 -2 -22 -9 -38z m-155 -134 c-6 -29 -2 -37 34 -69 36 -32 47 -37 91
-37 41 0 56 5 76 25 19 19 22 29 15 42 -6 13 -5 22 5 31 12 11 14 6 14 -31 0
-92 -56 -218 -117 -264 -46 -33 -110 -63 -138 -63 -66 0 -173 76 -210 151 -26
50 -55 155 -55 198 0 20 2 21 15 11 9 -7 13 -21 9 -35 -15 -59 115 -90 173
-41 l29 24 -15 -83 c-13 -69 -19 -85 -35 -87 -28 -4 -44 -34 -30 -55 6 -10 19
-19 28 -21 9 -2 28 -14 41 -28 31 -31 69 -31 101 1 14 14 31 25 39 25 8 0 19
9 25 20 16 30 -4 60 -40 60 -25 0 -30 4 -30 24 0 14 -5 28 -11 32 -7 4 -9 22
-4 50 7 47 -6 84 -30 84 -18 0 -20 51 -3 68 18 18 29 3 23 -32z m-83 10 c20
-9 32 -36 15 -36 -7 0 -21 7 -31 15 -13 10 -44 15 -88 15 -60 0 -78 6 -64 21
7 6 149 -6 168 -15z m298 3 c0 -5 -33 -9 -74 -9 -53 0 -79 -4 -90 -15 -16 -17
-36 -20 -36 -6 0 22 39 36 109 41 81 6 91 4 91 -11z m-389 -66 c15 -3 36 0 47
6 20 11 43 -2 29 -16 -13 -12 -89 -15 -117 -3 -30 12 -32 37 -1 25 9 -4 28 -9
42 -12z m281 0 c10 -3 32 0 49 6 38 13 52 5 25 -15 -34 -24 -126 -15 -126 13
0 11 5 13 18 8 9 -4 25 -9 34 -12z m-127 -73 c-12 -56 -11 -60 6 -60 11 0 19
-7 19 -15 0 -10 -10 -15 -30 -15 -34 0 -34 0 -19 87 7 39 16 63 24 63 10 0 10
-12 0 -60z m95 -140 c0 -6 -40 -10 -100 -10 -60 0 -100 4 -100 10 0 6 40 10
100 10 60 0 100 -4 100 -10z m-50 -40 c0 -5 -20 -10 -45 -10 -25 0 -45 5 -45
10 0 6 20 10 45 10 25 0 45 -4 45 -10z"/>
<path d="M510 1395 c0 -8 5 -15 10 -15 6 0 10 7 10 15 0 8 -4 15 -10 15 -5 0
-10 -7 -10 -15z"/>
<path d="M717 1294 c-8 -8 1 -24 14 -24 5 0 9 7 9 15 0 15 -12 20 -23 9z"/>
<path d="M602 1239 c2 -6 8 -10 13 -10 5 0 11 4 13 10 2 6 -4 11 -13 11 -9 0
-15 -5 -13 -11z"/>
<path d="M686 733 c-11 -11 -6 -23 9 -23 8 0 15 4 15 9 0 13 -16 22 -24 14z"/>
<path d="M517 704 c-8 -8 1 -24 14 -24 5 0 9 7 9 15 0 15 -12 20 -23 9z"/>
<path d="M192 1301 c4 -13 18 -16 19 -4 0 4 -5 9 -11 12 -7 2 -11 -2 -8 -8z"/>
<path d="M400 1275 c0 -9 5 -15 11 -13 6 2 11 8 11 13 0 5 -5 11 -11 13 -6 2
-11 -4 -11 -13z"/>
<path d="M306 1213 c-11 -11 -6 -23 9 -23 8 0 15 4 15 9 0 13 -16 22 -24 14z"/>
<path d="M302 739 c2 -6 8 -10 13 -10 5 0 11 4 13 10 2 6 -4 11 -13 11 -9 0
-15 -5 -13 -11z"/>
<path d="M210 700 c0 -5 7 -10 15 -10 8 0 15 5 15 10 0 6 -7 10 -15 10 -8 0
-15 -4 -15 -10z"/>
<path d="M397 684 c-8 -8 1 -24 14 -24 5 0 9 7 9 15 0 15 -12 20 -23 9z"/>
<path d="M107 673 c-15 -14 -6 -99 13 -130 26 -43 45 -43 36 -2 -3 17 -6 56
-6 85 0 46 -3 54 -18 54 -10 0 -22 -3 -25 -7z"/>
<path d="M780 642 c0 -22 -3 -61 -7 -87 -5 -38 -3 -47 8 -43 25 8 50 70 47
118 -3 38 -6 45 -25 48 -21 3 -23 -1 -23 -36z"/>
<path d="M942 838 c-8 -8 -12 -46 -12 -104 0 -106 12 -128 54 -101 21 14 26
14 36 2 15 -18 42 -19 57 -4 8 8 17 7 31 -2 18 -12 24 -10 45 9 29 27 35 27
64 0 20 -19 27 -20 43 -10 16 10 24 10 39 0 17 -10 23 -9 40 6 20 18 22 18 39
3 23 -21 36 -21 52 -2 12 14 15 14 30 0 21 -19 29 -19 52 2 17 15 19 15 39 -3
17 -15 23 -16 40 -6 15 9 23 10 38 0 15 -9 23 -9 34 1 12 10 19 10 36 0 17
-11 23 -10 40 5 18 16 21 30 20 102 0 69 -4 85 -20 100 -25 23 -46 12 -74 -39
l-21 -36 -19 36 c-28 51 -49 62 -74 39 -20 -18 -22 -18 -41 -1 -23 20 -50 14
-57 -15 -5 -19 -6 -19 -35 5 -20 17 -42 25 -68 25 -54 0 -70 -20 -70 -86 0
-30 -4 -54 -8 -54 -4 0 -16 25 -27 56 -11 33 -29 62 -42 71 -21 14 -25 14 -42
-1 -10 -9 -26 -36 -34 -59 -9 -23 -21 -55 -27 -71 l-11 -29 -24 23 c-31 29
-31 35 0 72 29 34 31 50 9 69 -13 11 -21 11 -44 -3 -25 -14 -31 -14 -41 -2
-14 17 -31 18 -47 2z m36 -53 c-2 -19 -2 -35 2 -35 3 0 18 16 33 35 15 19 35
35 44 35 12 0 6 -12 -22 -40 l-38 -39 37 -46 c26 -31 33 -45 22 -45 -8 0 -28
16 -43 35 -15 19 -30 35 -33 35 -4 0 -4 -16 -2 -35 3 -27 1 -35 -12 -35 -13 0
-16 14 -16 85 0 71 3 85 16 85 13 0 15 -8 12 -35z m247 -42 c17 -42 32 -80 33
-85 2 -4 -3 -8 -11 -8 -9 0 -19 9 -22 20 -5 15 -15 20 -42 20 -26 0 -36 -5
-40 -20 -4 -16 -33 -30 -33 -16 0 21 64 166 74 166 6 0 25 -35 41 -77z m176
67 c26 -14 25 -64 -1 -83 l-20 -14 20 -26 c24 -30 25 -37 7 -37 -8 0 -22 16
-33 35 -10 19 -24 35 -31 35 -8 0 -13 -13 -13 -35 0 -19 -4 -35 -10 -35 -6 0
-10 35 -10 85 l0 85 36 0 c19 0 44 -5 55 -10z m99 -75 c0 -69 -3 -85 -15 -85
-12 0 -15 16 -15 85 0 69 3 85 15 85 12 0 15 -16 15 -85z m117 15 l29 -71 28
71 c39 99 56 94 56 -15 0 -62 -3 -85 -13 -85 -8 0 -11 13 -9 44 7 78 -2 84
-27 19 -13 -35 -29 -63 -36 -63 -7 0 -23 27 -35 60 -12 33 -25 60 -27 60 -3 0
-3 -27 -1 -60 3 -45 1 -60 -9 -60 -10 0 -13 21 -13 85 0 108 16 112 57 15z
m-177 -52 c0 -18 -2 -20 -9 -8 -6 8 -7 18 -5 22 9 14 14 9 14 -14z"/>
<path d="M1172 761 c-17 -47 -15 -51 13 -51 28 0 28 1 11 50 l-13 34 -11 -33z"/>
<path d="M1330 770 c0 -27 3 -30 30 -30 34 0 49 22 30 45 -7 8 -23 15 -36 15
-20 0 -24 -5 -24 -30z"/>
<path d="M1917 828 c-27 -26 -80 -160 -71 -182 10 -25 37 -28 66 -6 33 25 33
25 58 0 26 -26 46 -25 61 1 l11 21 22 -21 c31 -30 89 -28 113 2 l17 23 21 -24
c27 -32 53 -24 61 18 8 37 32 40 36 4 4 -39 32 -53 57 -30 12 11 21 27 21 37
0 13 8 9 34 -17 46 -46 101 -48 146 -4 16 16 30 35 30 41 0 7 14 -7 30 -29 26
-37 35 -42 69 -42 31 0 44 6 64 30 23 27 46 42 33 22 -7 -12 22 -52 38 -52 8
0 19 7 26 15 12 14 15 14 30 0 21 -19 44 -19 60 0 10 12 10 21 0 46 -10 22
-10 33 -1 42 6 6 11 28 11 48 0 29 -6 43 -26 58 -33 26 -100 28 -125 5 -17
-15 -19 -15 -34 0 -21 20 -28 20 -48 -2 -11 -12 -17 -36 -17 -70 0 -29 -4 -52
-10 -52 -5 0 -10 24 -10 53 0 40 -5 58 -19 71 -24 22 -51 11 -58 -25 l-6 -29
-34 35 c-28 29 -41 35 -75 35 -34 0 -46 -6 -74 -36 -28 -29 -34 -32 -34 -16 0
19 -29 52 -45 52 -12 0 -34 -33 -35 -52 0 -24 -30 -23 -30 0 0 11 -9 27 -21
38 -21 19 -21 18 -44 -8 l-23 -27 -23 25 c-31 33 -81 32 -116 -2 -25 -25 -25
-29 -11 -94 2 -8 -1 -17 -6 -20 -5 -3 -21 23 -35 58 -32 78 -50 91 -84 60z
m69 -93 c23 -61 28 -85 18 -85 -7 0 -16 9 -19 20 -5 15 -15 20 -45 20 -29 0
-39 -4 -43 -20 -3 -11 -12 -20 -20 -20 -12 0 -10 13 13 68 15 37 30 75 33 85
13 36 33 14 63 -68z m170 71 c26 -19 10 -33 -20 -16 -27 14 -60 7 -54 -13 3
-6 22 -21 44 -33 61 -32 57 -94 -7 -94 -27 0 -59 22 -59 41 0 15 27 10 34 -7
8 -21 50 -14 54 9 3 12 -9 23 -42 37 -36 15 -46 24 -46 43 0 12 5 28 12 35 16
16 60 15 84 -2z m94 -21 c0 -35 0 -35 46 -35 l47 0 -6 35 c-4 26 -2 35 9 35
11 0 14 -18 14 -85 0 -66 -3 -85 -14 -85 -11 0 -13 10 -9 40 l6 40 -47 0 -46
0 0 -40 c0 -22 -4 -40 -10 -40 -6 0 -10 35 -10 85 0 50 4 85 10 85 6 0 10 -16
10 -35z m305 10 c53 -53 16 -145 -58 -145 -45 0 -81 38 -81 85 0 76 87 113
139 60z m107 -41 c3 -74 21 -99 56 -78 13 8 18 27 20 78 2 43 7 66 15 66 18 0
9 -130 -10 -152 -17 -19 -59 -23 -83 -8 -20 12 -31 160 -13 160 8 0 13 -23 15
-66z m260 49 c24 -21 23 -48 -3 -72 l-21 -20 22 -30 c17 -24 18 -31 6 -31 -8
0 -24 16 -36 35 -12 19 -26 35 -31 35 -5 0 -9 -16 -9 -35 0 -24 -5 -35 -15
-35 -12 0 -15 16 -15 85 l0 85 42 0 c24 0 49 -7 60 -17z m-732 -49 c0 -8 -5
-12 -10 -9 -6 4 -8 11 -5 16 9 14 15 11 15 -7z"/>
<path d="M1924 745 c-11 -34 -10 -35 17 -35 26 0 27 1 16 35 -6 19 -13 35 -16
35 -3 0 -11 -16 -17 -35z"/>
<path d="M2456 778 c-44 -63 19 -138 79 -94 13 9 19 26 19 51 0 61 -66 90 -98
43z m62 -45 c-2 -20 -9 -28 -23 -28 -14 0 -21 8 -23 28 -3 23 0 27 23 27 23 0
26 -4 23 -27z"/>
<path d="M2850 770 c0 -28 3 -31 28 -28 21 2 27 8 27 28 0 20 -6 26 -27 28
-25 3 -28 0 -28 -28z"/>
</g>
</svg>
